<svg xmlns="http://www.w3.org/2000/svg" width="1000" height="1000" viewBox="0 0 1000 1000">
  <defs>
    <style>
      .cls-1 {
        fill: #fff;
        fill-rule: evenodd;
      }
    </style>
  </defs>
  <path id="logo-final_1" data-name="logo-final 1" class="cls-1" d="M1000,455.645v73.146c-1.622.029-51.3,6.136-44,10.02-61.42,22.832-56.016,93.406-56,182.365q-1,35.067-2,70.141c-5.522,16.56-5.986,38.537-14,54.108-27.628,53.685-33.706,55.2-64,82.165-16.021,14.26-36.7,23.553-59,33.066-5.914,2.523-23.807,9.26-34,12.024-3.428-5.26-19.748-53.69-23-62.124,8.156-1.712,20.434-5.836,29-12.024,58.706-42.415,73-75.633,73-180.362,0-29.608-4.978-104.168,4-124.249,7.847-17.551,13.309-41.805,27-58.116-5.5,6.55,28.2-36.122,55-39.078-30.969-7.814-54.806-46.386-70-70.141-6.449-10.082-6.24-25.221-12-35.07q-2-17.033-4-34.068V242.217c0-7.331,1.056-35.363-2-35.07q-1.5-13.525-3-27.054c-5.3-16.783-9.256-41.453-22-56.113-1-2.337-5-4.676-6-7.014-9.775-7.93-17.8-16.216-30-22.044-27.906-13.333-97.209.185-111,15.03-28.773,30.973-30.872,63.464-30,134.269H713V318.37H602c0,151.621,0,303.289-.838,454.469-15.56-.147-76.078-0.161-91.162-0.56,0-150.954-2-302.955-2-453.909H484q-0.5,271.516-1,543.087-3,19.538-6,39.079c-7.036,14.186-19.667,43.056-34,55.11-1.227,1.032-8.026,3.236-5,5.01-5.2,2.787-23.464,13.716-23,14.028-28.671,9.267-67.74,22.7-111,15.03-79.813-14.155-141.095-53.4-175-108.217-8.451-13.663-18.661-45.6-24-66.132-2.8-10.764-4-73.169-4-91.183C101.009,614.227,98.641,542.6,0,540.815V467.669c101.093,1.02,101.005-75.625,101-177.356,1.391-57.839-.1-110.388,23-154.309C147.225,91.85,215.062,28.248,278,26.786L297,84.9c-92.161,34.731-102.006,89.852-102,195.391,0,23.551.27,96.241-2,113.227-2.71,20.281-12.5,48.921-27,67.135-0.866,1.087-7.346,5.181-4,7.014l-26,23.046c-1.043.678-2.9,1.835-1,3.006-8.083,4.131-14.289,9.645-20,11.022,21.234,4.991,31.7,25.249,42,36.072,67.193,70.633,10.963,236.406,62,320.642,16.152,26.659,30.765,37.608,58,52.105,0.181,0.246,30.792,14.084,56,2,80.7-38.675,56.007-89.767,56-204.41V245.223c9.342,0,83.715-.138,119,0-2.9-55.325,5.73-133.344,28-165.331,31.821-45.706,59.8-52.973,105-65.13,45.251-12.172,84.655-1.867,100,2,47,11.857,69.084,32.872,101,59.118,23.43,19.267,33.841,51.417,49,84.169q4.5,27.051,9,54.108v82.164C899.987,392.215,909.808,455.776,1000,455.645ZM425,52.838c45.308-.732,58.238,11.867,66,42.084,9.457,36.819-3.791,47.683-30,62.125-42.786,15.88-79-10.248-79-48.1C382,94.346,383.667,69.447,425,52.838Z"/>
</svg>
